<svg xmlns="http://www.w3.org/2000/svg" viewBox="0 0 422.02 127.92"><defs><style>.cls-1{fill:#ffffff;}.cls-2{fill:#ffffff;}</style></defs><title>Asset 4dental-logo</title><g id="Layer_2" data-name="Layer 2"><g id="Layer_1-2" data-name="Layer 1"><path class="cls-1" d="M0,66.66c14.82,11.27,30.67,10.79,46.85,7.58C57.8,72.06,68,67.79,78.49,61.92a12.8,12.8,0,0,1-3.7,4.78C61.28,78.54,45.41,84.25,27.58,84.61c-2.79.06-3.53.33-2.35,3.18C29.06,97.08,33.51,106,40.88,113A17.07,17.07,0,0,0,46,116.69c4.16,1.74,7.63.59,9.88-3.31,1.51-2.62,2.18-5.56,3.2-8.37,2.62-7.27,7.23-10.81,14-10.85,6.34,0,10.66,3.3,13.5,10.44,1,2.55,1.84,5.19,3.06,7.62,2.9,5.76,8.34,6.79,13.27,2.62,3.08-2.62,5.13-6.08,7.31-9.43,1.44-2.23,9.19-3.39,11.12-1.71.9.79.38,1.6,0,2.34-2.92,5.07-5.54,10.36-9.58,14.69-10.66,11.41-25.86,8.87-32.16-5.36-.76-1.71-1.28-3.52-2.08-5.2-1-2.16-1.42-5.16-4.72-5-3,.11-3.44,2.84-4.31,5-.69,1.74-1.29,3.51-2,5.25-4.89,12.44-16.74,16.17-27.91,8.73-7-4.68-11.94-11.28-16.27-18.34a96.74,96.74,0,0,1-9.77-21,11.42,11.42,0,0,0-4.12-6A22,22,0,0,1,0,66.66Z"/><path class="cls-1" d="M230.45,48.68c8-6.83,19.41-7.52,27.45,1.81,5.53-5.57,12.13-8.16,20-6.74A18.71,18.71,0,0,1,293.35,59.5c1.39,10.81.31,21.69.55,32.54,0,2-1.09,2.95-3.07,2.91a31.55,31.55,0,0,0-3.37,0c-2.89.27-4-.94-4-3.88.13-7.61.05-15.22,0-22.84a43.76,43.76,0,0,0-.14-4.86c-.67-5.92-4.53-9.77-9.81-9.91-5.47-.15-9.95,3.57-10.93,9.29a40.56,40.56,0,0,0-.44,6.7c0,6.74.11,13.48.16,20.22,0,5.09-.15,5.24-5.24,5.27-4.9,0-5-.07-5-5,0-8.36.08-16.72-.12-25.08-.18-7.77-4.54-12-11.25-11.28-5.19.54-9,4.26-9.59,9.88-.9,8.58-.38,17.2-.43,25.81,0,1.79.87,4.22-1.12,5.15-2.49,1.15-5.41.8-8.07.18-1.27-.29-1.1-1.8-1.1-2.91,0-14.85-.07-29.7-.17-44.55,0-2.42,1-3.45,3.37-3.2a21.11,21.11,0,0,0,2.25,0C228.55,43.9,231.62,43.34,230.45,48.68Z"/><path class="cls-1" d="M86.48,20.89c-12.25,3.68-24.26,3.9-35.85-2.11-2.43-1.26-4.71-2.81-7.14-4.07C28.84,7.12,16.57,13.07,13.28,29.27c-2.1,10.35-.39,20.33,2.85,30.17,1.31,4,1.34,3.55-2.73,3.47C7.59,62.8,5,60.14,3.75,54.53,1,42,.62,29.77,5.75,17.83,12.15,2.93,28.18-3.36,43.12,3.06a49.77,49.77,0,0,1,8.52,4.63A77.52,77.52,0,0,0,85.18,20.57,12.31,12.31,0,0,1,86.48,20.89Z"/><path class="cls-2" d="M395.4,57.37c0-7.49.11-15,0-22.47-.06-2.95,1-4.16,3.92-3.85a25.93,25.93,0,0,0,3.74,0c1.92-.07,2.69.87,2.66,2.73,0,2.25.2,4.52,0,6.74-.3,2.93.93,3.68,3.64,3.48,3.11-.23,6.24,0,9.36-.14,2.48-.12,3.42,1,3.27,3.32a25.27,25.27,0,0,0,0,3.37c.17,2.6-1.18,3.63-3.6,3.62-3.25,0-6.5.06-9.74,0-2.12-.07-2.84.79-2.81,2.87.1,6.74,0,13.48.12,20.22.12,5.26,3.26,8.28,8.48,8.53.62,0,1.24,0,1.87,0,4.94-.09,6.83,2.69,5.19,7.55-.51,1.48-1.65,1.73-2.95,1.79a47.81,47.81,0,0,1-9.34-.1c-7.39-1.09-12.87-6.53-13.2-14-.34-7.85-.07-15.72-.07-23.58Z"/><path class="cls-1" d="M369,49.58c5.18-5.54,11.52-5.79,18-5.72,2.23,0,3.22.89,3,3.14-.1,1.24,0,2.5,0,3.75.05,2.55-1.29,3.47-3.72,3.57-14.1.58-17.84,4.59-17.71,18.78.06,6-.09,12,.16,18,.17,4.15-2.43,3.88-5.16,3.86s-5.22.45-5.18-3.78c.15-14.23,0-28.46,0-42.69,0-2.26-.43-4.5,3.15-4.58,6-.14,6.4-.08,6.93,4A13.07,13.07,0,0,0,369,49.58Z"/><path class="cls-1" d="M71.49,9.73C84.16,2.11,97.14-2.62,111.55,1.56c11.58,3.36,18.12,11.8,20,23.74.4,2.58.51,5.2.78,7.8.19,1.9-.62,2.83-2.53,2.79l-1.12,0c-6.67.25-6.67.25-7.46-6.34C119.51,15.41,110.68,8.77,96.49,11.3c-7.45,1.32-14.81,1.93-22.16-.43C73.53,10.61,72.76,10.24,71.49,9.73Z"/><path class="cls-2" d="M87.94,60c0-9,.13-18-.06-26.94-.08-3.87,2-4.14,5-4.1s5,.16,5,4.1c-.09,16.21.11,32.42.12,48.64,0,2.91.1,5.19,4.07,4.81,2.35-.23,2.7,1.77,2.68,3.64,0,2.07.53,4.52-2.39,5.15-7.61,1.66-15-2-14.37-10.24.34-4.21,0-8.47,0-12.71s0-8.23,0-12.35Z"/><path class="cls-1" d="M213.12,46.81c0-1.31-.18-2.42-1.73-2.89-4.86-1.5-8.07.35-8.86,5.19-14.12-8-26.13-7.1-34.87,2.64-8.13,9.06-9,23.82-2,33.64A23.88,23.88,0,0,0,179.5,95,25.33,25.33,0,0,0,202,90.52c1.53,4.58,2.6,5.08,8.1,4.51,2.15-.22,3.1-1.19,3.09-3.34Q213.13,69.25,213.12,46.81ZM187,86.34a16.08,16.08,0,0,1-15.84-16c-.08-9.62,6.41-16.62,15.38-16.62,9.35,0,16.24,6.9,16.3,16.29A16,16,0,0,1,187,86.34Z"/><path class="cls-1" d="M351.67,47c0-1.3-.08-2.47-1.6-3-4.69-1.6-8.29.42-9,5.1-16.08-8-28.45-6.41-36.64,4.61-7.44,10-6.55,25.27,1.7,34.22a25.69,25.69,0,0,0,34.21,2.58c1.57,4.83,1.77,4.87,7.81,4.57,2.44-.13,3.6-1,3.59-3.6C351.65,76.63,351.67,61.8,351.67,47Zm-26,39.21a16.26,16.26,0,1,1-.21-32.51c9.24,0,16,7,15.94,16.58C341.37,79.44,334.76,86.14,325.69,86.18Z"/><path class="cls-1" d="M151.09,73.33c4.32,0,5.25-1,5.21-5.38-.07-10.1-4.9-17.4-13.74-21.87-9.64-4.86-22.26-2.81-29.57,4.39-8,7.87-10.1,19.78-5.38,30.43,4.21,9.51,15.12,16,25.83,15.07,7.67-.64,14.23-3.54,18.71-10.16,1.61-2.36,1.47-4-1.55-5s-5.39-1-8.12,1.36c-8,7-21,4.41-25.59-4.85-1.73-3.5-1.43-4,2.4-4,5.23,0,10.47,0,15.71,0v.1C140.37,73.34,145.73,73.38,151.09,73.33Zm-20.43-9.49v.09c-4,0-8,0-12,0-2,0-2.5-.65-1.48-2.42,3-5.19,7.46-7.91,13.46-7.93s10.79,2.5,13.89,7.85c1.14,2,.17,2.39-1.57,2.39Z"/></g></g></svg>